<svg stroke-miterlimit="10" style="fill-rule:nonzero;clip-rule:evenodd;stroke-linecap:round;stroke-linejoin:round;" version="1.1" xml:space="preserve" xmlns="http://www.w3.org/2000/svg" xmlns:vectornator="http://vectornator.io" xmlns:xlink="http://www.w3.org/1999/xlink" viewBox="494.46 20.23 1420.97 1407.84">
<defs>
<filter color-interpolation-filters="sRGB" filterUnits="userSpaceOnUse" height="131.411" id="Filter" width="460.158" x="966.215" y="751.671">
<feDropShadow dx="16.2121" dy="16.0458" flood-color="#5b5353" flood-opacity="1" in="SourceGraphic" result="Shadow" stdDeviation="19.6827"/>
</filter>
<filter color-interpolation-filters="sRGB" filterUnits="userSpaceOnUse" height="725.469" id="Filter_2" width="220.279" x="906.563" y="425.661">
<feDropShadow dx="16.2121" dy="16.0458" flood-color="#5b5353" flood-opacity="1" in="SourceGraphic" result="Shadow" stdDeviation="19.6827"/>
</filter>
<filter color-interpolation-filters="sRGB" filterUnits="userSpaceOnUse" height="134.111" id="Filter_3" width="576.207" x="1067.98" y="384.549">
<feDropShadow dx="16.2121" dy="16.0458" flood-color="#5b5353" flood-opacity="1" in="SourceGraphic" result="Shadow" stdDeviation="19.6827"/>
</filter>
<filter color-interpolation-filters="sRGB" filterUnits="userSpaceOnUse" height="315.096" id="Filter_4" width="310.301" x="933.498" y="316.484">
<feDropShadow dx="16.2121" dy="16.0458" flood-color="#5b5353" flood-opacity="1" in="SourceGraphic" result="Shadow" stdDeviation="19.6827"/>
</filter>
<filter color-interpolation-filters="sRGB" filterUnits="userSpaceOnUse" height="220.318" id="Filter_5" width="215.266" x="1239.32" y="697.048">
<feDropShadow dx="16.2121" dy="16.0458" flood-color="#5b5353" flood-opacity="1" in="SourceGraphic" result="Shadow" stdDeviation="19.6827"/>
</filter>
<filter color-interpolation-filters="sRGB" filterUnits="userSpaceOnUse" height="267.381" id="Filter_6" width="269.029" x="882.086" y="688.791">
<feDropShadow dx="16.2121" dy="16.0458" flood-color="#5b5353" flood-opacity="1" in="SourceGraphic" result="Shadow" stdDeviation="19.6827"/>
</filter>
<filter color-interpolation-filters="sRGB" filterUnits="userSpaceOnUse" height="221.47" id="Filter_7" width="222.288" x="845.408" y="1027.46">
<feDropShadow dx="16.2121" dy="16.0458" flood-color="#5b5353" flood-opacity="1" in="SourceGraphic" result="Shadow" stdDeviation="19.6827"/>
</filter>
<filter color-interpolation-filters="sRGB" filterUnits="userSpaceOnUse" height="312.969" id="Filter_8" width="313.831" x="1432.96" y="296.971">
<feDropShadow dx="16.2121" dy="16.0458" flood-color="#5b5353" flood-opacity="1" in="SourceGraphic" result="Shadow" stdDeviation="19.6827"/>
</filter>
<clipPath id="TextBounds">
<rect height="1473.68" width="1468.42" x="953.793" y="462.002"/>
</clipPath>
<filter color-interpolation-filters="sRGB" filterUnits="userSpaceOnUse" height="739.946" id="Filter_9" width="733.689" x="1110.2" y="623.19">
<feDropShadow dx="0" dy="0" flood-color="#000000" flood-opacity="1" in="SourceGraphic" result="Shadow" stdDeviation="1.45349"/>
</filter>
</defs>
<g id="Layer-3" vectornator:layerName="Layer 3">
<path d="M1215.9 69.0936C1225.43 64.3642 1205.57 65.9313 1202.92 69.6558C1199.74 74.1326 1196.29 78.4224 1192.75 82.632C1176.85 101.576 1157.3 116.543 1139.01 133.095C1117.73 152.352 1098.21 173.39 1076.54 192.209C1068.82 198.919 1052.06 211.808 1044.58 219.603C1029.15 235.69 1016.4 253.882 1001.01 270.066C985.018 286.867 965.156 298.438 948.71 314.761C940.829 322.584 935.34 332.262 928.373 340.714C918.683 352.469 906.244 362.169 896.415 373.875C886.459 385.734 879.932 400.328 868.815 411.362C865.87 414.285 861.592 415.648 858.647 418.571C852.128 425.041 846.793 432.65 839.762 438.756C829.303 447.84 816.985 453.572 807.804 464.708C805.593 467.391 804.33 470.783 801.994 473.359C796.052 479.912 787.356 484.25 780.204 489.219C775.257 492.656 768.896 498.719 764.225 502.195C753.263 510.356 740.434 515.83 729.362 523.822C713.206 535.485 700.221 550.921 684.33 562.751C665.771 576.566 661.235 597.594 643.742 612.786C634.901 620.464 621.439 636.655 612.38 644.148C602.418 652.388 596.457 660.183 588.146 669.808C582.252 676.633 568.66 690.765 562.486 696.893C557.068 702.271 544.877 708.711 544.877 717.023C544.877 719.587 544.769 725.749 546.33 728.557C559.635 752.489 557.167 727.779 562.309 732.883C564.778 735.333 565.884 738.871 568.119 741.534C581.335 757.274 592.56 772.611 604.435 789.113C608.274 794.446 614.799 795.827 618.962 800.647C623.068 805.402 625.526 812.205 630.583 816.507C634.936 820.211 642.155 821.513 646.562 825.158C651.253 829.038 652.326 837.332 655.278 842.459C658.786 848.554 665.277 850.774 668.351 856.877C670.227 860.6 670.206 866.541 672.709 869.854C675.721 873.839 684.498 872.515 688.688 874.179C699.175 878.342 703.086 893.703 713.387 898.084C719.901 900.855 722.411 907.231 728.272 911.109C732.863 914.147 735.976 919.108 738.195 923.514C740.918 928.918 743.589 930.661 746.879 936.538C749.411 941.063 760.44 931.546 762.773 936.176C768.806 948.153 780.936 955.888 788.92 966.454C791.519 969.893 792.213 974.49 794.731 977.988C799.732 984.939 808.734 987.018 815.068 992.406C820.423 996.963 823.612 1003.02 828.141 1008.27C831.485 1012.14 834.888 1022.74 840.532 1024.61C843.78 1025.68 839.145 1027.26 842.393 1028.33C848.202 1030.25 860.009 1044.44 864.721 1047.56C869.65 1050.82 870.968 1053.84 875.265 1058.1C879.712 1062.52 890.815 1082.99 895.112 1087.25C900.027 1092.13 925.206 1071.51 931.278 1076.03C934.313 1078.29 936.029 1082.26 939.994 1083.24C964.064 1089.21 958.275 1053.47 957.426 1039.99C955.662 1011.98 952.832 984.423 955.973 956.361C957.264 944.835 965.047 939.202 967.339 927.83C969.262 918.285 987.073 877.113 990.147 867.958C993.508 857.95 970.077 872.135 974.858 862.645C986.495 839.544 994.387 820.512 999.552 794.88C1007.22 756.851 1010.56 718.435 1021.34 680.978C1022.89 675.599 1026.39 671.698 1028.61 666.56C1032.77 656.921 1025.22 642.363 1029.31 632.63C1032.63 624.719 1030.62 609.637 1032.52 601.165C1033.54 596.575 1038.01 569.817 1038.94 565.205C1042.62 546.95 1056.96 559.781 1063.47 542.565C1066.28 535.112 1063.98 537.998 1064.92 529.589C1066.58 514.782 1072.8 499.54 1079.45 486.335C1082.48 480.321 1087.21 470.367 1092.52 466.15C1095.06 464.136 1098.59 463.699 1101.24 461.825C1112.44 453.883 1125.35 442.909 1139.01 440.198C1143.33 439.339 1149.47 441.811 1153.53 440.198C1157 438.822 1159.92 435.37 1163.7 434.431C1167.68 433.443 1172.24 444.015 1176.36 443.197C1190.3 440.429 1206.26 434.987 1220.35 432.989C1226.6 432.103 1238.26 426.58 1234.79 441.27C1231.33 455.961 1246.28 443.629 1252.77 442.555C1261.5 441.112 1274.87 440.788 1283.6 439.344C1294.53 437.536 1290 433.359 1299.01 434.849C1312.97 437.158 1329.18 426.208 1342.37 424.338C1351.24 423.08 1351.39 433.135 1360.01 430.996C1364.8 429.809 1366.83 424.023 1379.92 428.428C1393.01 432.832 1393.26 426.957 1399.18 428.428C1402.71 429.302 1409.83 425.263 1413.55 424.338C1423.19 421.947 1417.18 432.561 1425.51 428.428C1428.41 426.988 1448.52 422.189 1451.84 421.364C1463.26 418.53 1473.67 412.873 1484.73 414.245C1492.65 415.227 1501.36 416.577 1509.43 415.687C1515.65 415.001 1520.84 411.247 1526.86 409.92C1536.51 407.792 1549.82 405.876 1557.36 398.386C1566.43 389.386 1543.02 391.183 1524.4 380.267C1492.68 361.673 1514.42 370.976 1507.06 365.497C1500.33 360.488 1479.46 330.981 1472.93 326.12C1466.53 321.359 1457.38 308.27 1450.58 303.77C1444.45 299.718 1444.41 301.92 1440.1 296.786C1435.44 291.234 1436.38 293.178 1431.72 287.007C1428.01 282.097 1432.56 292.002 1428.23 287.706C1422.57 282.086 1427.05 283.788 1420.55 278.626C1416.01 275.025 1417.45 272.652 1413.56 268.15C1410.41 264.501 1400.22 258.277 1396.8 254.879C1390.58 248.707 1387.39 241.931 1381.43 236.021C1376.34 230.969 1370.87 224.505 1365.37 219.957C1361.23 216.536 1363.47 192.433 1356.29 208.084C1349.11 223.734 1350.8 204.66 1346.51 200.401C1343.35 197.268 1332.61 188.439 1329.75 185.035C1323.49 177.577 1302 163.694 1297.62 155.002C1290.92 141.694 1240.49 83.7609 1222.89 83.7609" fill="#596377" fill-rule="evenodd" opacity="1" stroke="none"/>
<path d="M1071.48 466.479C1071.48 506.749 1052.38 530.23 1040.24 568.746C1036.11 581.861 1027.33 599.673 1024.74 613.402C1022.69 624.26 1040.64 644.984 1021.64 646.274C1002.64 647.564 1018.55 668.95 1014.81 689.069C1011.08 709.189 1011.32 715.541 1009.23 728.764C1007.73 738.282 1016.71 745.78 1015.18 755.456C1014.42 760.284 1015.84 765.507 1015.18 770.352C1013.9 779.85 1008.2 787.85 1006.74 797.165C1003.49 817.772 1002.6 839.629 995.477 859.727C992.36 868.523 987.976 877.411 985.624 886.539C979.375 910.785 978.116 937.693 975.771 962.507C973.687 984.557 965.391 1004.76 963.103 1026.56C961.963 1037.41 953.573 1044.93 951.552 1055.62C949.728 1065.27 952.618 1076.84 954.657 1087.63C957.801 1104.27 964.25 1123.41 974.363 1136.79C980.545 1144.96 987.67 1152 991.254 1162.11C995.214 1173.29 996.636 1187.24 1006.74 1194.88C1011.48 1198.47 1016.9 1198.96 1022.22 1200.84C1028.01 1202.88 1028.95 1207.67 1033.48 1211.27C1038.14 1214.96 1044.72 1215.71 1048.96 1220.2C1054.1 1225.64 1056.98 1233.66 1061.63 1239.57C1067.39 1246.88 1075.33 1251.09 1081.34 1257.44C1083.27 1259.49 1083.28 1263.28 1085.56 1264.89C1088.27 1266.8 1093.32 1265.09 1096.82 1267.87C1102.28 1272.21 1103.46 1280.43 1109.49 1284.26C1127.51 1295.7 1134.57 1305.25 1143.27 1325.96C1146.6 1333.89 1153.69 1338.9 1158.75 1345.33C1161.47 1348.78 1161.57 1354.27 1164.38 1357.24C1168.48 1361.58 1176.9 1366.45 1182.68 1367.67C1187.69 1368.73 1196.66 1367.22 1200.98 1370.65C1204.45 1373.4 1206.45 1380.25 1210.83 1382.57C1212.51 1383.46 1214.64 1382.09 1216.46 1382.57C1217.97 1382.97 1220.15 1385.43 1222.09 1384.06C1225.73 1381.49 1232.47 1364.92 1236.17 1360.22C1242.54 1352.13 1249.99 1344.95 1255.88 1336.39C1264.48 1323.87 1270.16 1309.32 1279.8 1297.66C1287.69 1288.12 1298.97 1279.94 1309.36 1273.83C1313.59 1271.35 1318.4 1269.75 1322.03 1266.38C1342.28 1247.63 1353.99 1221.25 1374.11 1202.33C1380.36 1196.45 1387.6 1191.86 1393.82 1185.94C1405.32 1174.98 1415.29 1161.73 1426.19 1150.19C1434.7 1141.19 1445.98 1138.19 1454.34 1129.34C1460.85 1122.45 1466.01 1113.24 1471.23 1105.51C1475.06 1099.83 1476.28 1101.65 1481.08 1096.57C1495.34 1081.48 1508.04 1066.02 1523.31 1051.88C1539.28 1037.09 1560.19 1033.71 1575.39 1017.62C1584.83 1007.63 1593.74 995.224 1603.54 984.851C1608.11 980.021 1615.31 977.679 1620.43 972.934C1637.62 957.015 1653.34 940.305 1671.11 925.268C1683.47 914.802 1701.21 910.631 1713.33 899.945C1720.74 893.409 1725.41 883.797 1731.63 876.112C1741.71 863.67 1749.75 849.762 1759.78 837.383C1767.95 827.299 1782.1 815.575 1792.16 807.592C1796.63 804.036 1802.2 801.427 1806.23 797.165C1812.3 790.745 1814.66 780.8 1818.9 773.331C1822.62 766.774 1830.13 762.948 1834.38 756.946C1837.56 752.468 1842.31 751.535 1845.64 748.009C1851.21 742.121 1863.17 716.924 1859.72 707.79C1855.61 696.916 1848.25 687.785 1837.2 685.447C1829.99 683.921 1823.04 686.886 1816.08 682.467C1811.36 679.468 1806.71 669.248 1803.42 664.592C1798.82 658.107 1791.7 653.682 1786.52 648.207C1783.46 644.966 1781.14 639.532 1778.08 636.291C1774.34 632.331 1769.58 633.639 1765.41 630.332C1758.15 624.566 1757.92 613.56 1751.34 607.989C1743.91 601.698 1733.24 594.801 1726 587.135C1719.57 580.328 1717.02 570.374 1709.11 564.791C1702.51 560.133 1692.89 562.836 1686.59 558.833C1681.12 555.359 1679.05 549.183 1675.33 543.937C1665.27 529.751 1650.19 519.392 1640.14 505.208C1631.73 493.341 1623.22 482.832 1613.4 472.437C1604.35 462.865 1590.87 457.29 1581.02 448.604C1574.58 442.922 1575.21 433.612 1566.95 429.24" fill="#bec1c9" fill-rule="evenodd" opacity="1" stroke="none"/>
</g>
<g id="Layer-2" vectornator:layerName="Layer 2">
<path d="M1204.95 1386.94L535.609 724.161L1204.95 61.3815L1874.3 724.161L1204.95 1386.94Z" fill="#000000" fill-opacity="0" fill-rule="evenodd" opacity="1" stroke="#bec1c9" stroke-linecap="round" stroke-linejoin="round" stroke-width="34.0717"/>
</g>
<g id="Layer-1" vectornator:layerName="Layer 1">
<path d="M1359.41 786.373L1000.75 816.289" fill="#a76666" fill-rule="evenodd" filter="url(#Filter)" stroke="#a76666" stroke-linecap="round" stroke-linejoin="round" stroke-width="22.7646" vectornator:shadowAngle="0.780244" vectornator:shadowColor="#5b5353" vectornator:shadowOffset="22.8101" vectornator:shadowOpacity="1" vectornator:shadowRadius="39.3653"/>
<path d="M944.499 1080.94L1056.48 463.763" fill="#a76666" fill-rule="evenodd" filter="url(#Filter_2)" stroke="#a76666" stroke-linecap="round" stroke-linejoin="round" stroke-width="29.5653" vectornator:shadowAngle="0.780244" vectornator:shadowColor="#5b5353" vectornator:shadowOffset="22.8101" vectornator:shadowOpacity="1" vectornator:shadowRadius="39.3653"/>
<path d="M1105.73 448.647L1574.01 422.471" fill="#a76666" fill-rule="evenodd" filter="url(#Filter_3)" stroke="#a76666" stroke-linecap="round" stroke-linejoin="round" stroke-width="29.2042" vectornator:shadowAngle="0.780244" vectornator:shadowColor="#5b5353" vectornator:shadowOffset="22.8101" vectornator:shadowOpacity="1" vectornator:shadowRadius="39.3653"/>
<path d="M968.034 457.986C968.034 399.002 1014.78 351.186 1072.44 351.186C1130.1 351.186 1176.84 399.002 1176.84 457.986C1176.84 516.97 1130.1 564.786 1072.44 564.786C1014.78 564.786 968.034 516.97 968.034 457.986Z" fill="#a76666" fill-rule="evenodd" filter="url(#Filter_4)" stroke="#a76666" stroke-linecap="round" stroke-linejoin="round" stroke-width="22.7646" vectornator:shadowAngle="0.780244" vectornator:shadowColor="#5b5353" vectornator:shadowOffset="22.8101" vectornator:shadowOpacity="1" vectornator:shadowRadius="39.3653"/>
<path d="M1273.85 791.161C1273.85 758.349 1299.32 731.75 1330.74 731.75C1362.16 731.75 1387.62 758.349 1387.62 791.161C1387.62 823.973 1362.16 850.572 1330.74 850.572C1299.32 850.572 1273.85 823.973 1273.85 791.161Z" fill="#a76666" fill-rule="evenodd" filter="url(#Filter_5)" stroke="#a76666" stroke-linecap="round" stroke-linejoin="round" stroke-width="22.7646" vectornator:shadowAngle="0.780244" vectornator:shadowColor="#5b5353" vectornator:shadowOffset="22.8101" vectornator:shadowOpacity="1" vectornator:shadowRadius="39.3653"/>
<path d="M916.621 806.436C916.621 760.628 954.125 723.493 1000.39 723.493C1046.65 723.493 1084.15 760.628 1084.15 806.436C1084.15 852.244 1046.65 889.379 1000.39 889.379C954.125 889.379 916.621 852.244 916.621 806.436Z" fill="#a76666" fill-rule="evenodd" filter="url(#Filter_6)" stroke="#a76666" stroke-linecap="round" stroke-linejoin="round" stroke-width="22.7646" vectornator:shadowAngle="0.780244" vectornator:shadowColor="#5b5353" vectornator:shadowOffset="22.8101" vectornator:shadowOpacity="1" vectornator:shadowRadius="39.3653"/>
<path d="M937.368 1062.16C911.857 1062.16 889.992 1077.24 879.944 1098.86L964.206 1182.13C985.727 1172.06 1000.74 1150.42 1000.74 1125.18C1000.74 1090.36 972.367 1062.16 937.368 1062.16Z" fill="#a76666" fill-rule="evenodd" filter="url(#Filter_7)" stroke="#a76666" stroke-linecap="round" stroke-linejoin="round" stroke-width="22.7646" vectornator:shadowAngle="0.780244" vectornator:shadowColor="#5b5353" vectornator:shadowOffset="22.8101" vectornator:shadowOpacity="1" vectornator:shadowRadius="39.3653"/>
<path d="M1511.65 331.673C1484.73 353.488 1467.5 386.812 1467.5 424.163C1467.5 489.879 1520.74 543.147 1586.44 543.147C1624.34 543.147 1658.05 525.365 1679.83 497.742L1511.65 331.673Z" fill="#a76666" fill-rule="evenodd" filter="url(#Filter_8)" stroke="#a76666" stroke-linecap="round" stroke-linejoin="round" stroke-width="22.7646" vectornator:shadowAngle="0.780244" vectornator:shadowColor="#5b5353" vectornator:shadowOffset="22.8101" vectornator:shadowOpacity="1" vectornator:shadowRadius="39.3653"/>
</g>
<g id="Layer-4" vectornator:layerName="Layer 4">
<g fill="#6684a7" filter="url(#Filter_9)" stroke="#6684a7" stroke-linecap="round" stroke-linejoin="round" stroke-width="3.13651" vectornator:blendMode="luminosity" vectornator:shadowAngle="0.841058" vectornator:shadowColor="#000000" vectornator:shadowOffset="0" vectornator:shadowOpacity="1" vectornator:shadowRadius="2.90698">
<path clip-path="url(#TextBounds)" d="M1210.02 1357.23L1116.12 1264.42L1135.8 1244.5C1143.45 1236.76 1151.36 1232.98 1159.53 1233.15C1167.71 1233.32 1175.66 1237.23 1183.4 1244.88L1227.32 1288.29C1236.11 1296.98 1240.49 1305.52 1240.45 1313.91C1240.41 1322.3 1236.44 1330.5 1228.53 1338.5L1210.02 1357.23ZM1142.07 1263.48L1210.65 1331.26L1216.78 1325.06C1220.52 1321.28 1222.22 1317.67 1221.9 1314.22C1221.57 1310.77 1219.39 1307.04 1215.34 1303.04L1170.1 1258.33C1166.41 1254.68 1162.82 1252.6 1159.32 1252.1C1155.82 1251.6 1152.11 1253.32 1148.2 1257.28L1142.07 1263.48Z" fill-rule="evenodd"/>
<path clip-path="url(#TextBounds)" d="M1261.62 1239.34L1221.07 1212.3L1220.81 1212.57L1248.32 1252.79L1261.62 1239.34ZM1261.61 1305.04L1188.43 1191.25L1199.51 1180.04L1314.14 1251.89L1300.84 1265.34L1276.75 1249.35L1258.63 1267.68L1274.9 1291.58L1261.61 1305.04Z" fill-rule="evenodd"/>
<path clip-path="url(#TextBounds)" d="M1323.75 1242.16L1229.85 1149.35L1242.63 1136.42L1319.28 1172.03L1319.54 1171.77L1262.96 1115.85L1276.26 1102.4L1370.16 1195.21L1357.65 1207.87L1280.86 1172.65L1280.6 1172.92L1337.05 1228.71L1323.75 1242.16Z" fill-rule="evenodd"/>
<path clip-path="url(#TextBounds)" d="M1385.25 1179.94L1291.35 1087.13L1304.12 1074.21L1380.77 1109.82L1381.04 1109.55L1324.46 1053.63L1337.75 1040.18L1431.66 1132.99L1419.14 1145.65L1342.36 1110.44L1342.1 1110.7L1398.54 1166.49L1385.25 1179.94Z" fill-rule="evenodd"/>
<path clip-path="url(#TextBounds)" d="M1459.65 1104.67L1419.95 1065.43L1347.5 1030.32L1361.58 1016.08L1409.59 1042.15L1409.85 1041.89L1383.21 994.185L1397.29 979.941L1433.25 1051.98L1472.95 1091.22L1459.65 1104.67Z" fill-rule="evenodd"/>
<path clip-path="url(#TextBounds)" d="M1529.32 1034.18L1435.42 941.365L1475.05 901.272L1487.71 913.787L1461.38 940.427L1489.87 968.584L1512.81 945.373L1525.47 957.887L1502.53 981.098L1542.62 1020.73L1529.32 1034.18Z" fill-rule="evenodd"/>
<path clip-path="url(#TextBounds)" d="M1568.67 928.689L1528.12 901.652L1527.86 901.916L1555.37 942.142L1568.67 928.689ZM1568.66 994.383L1495.48 880.6L1506.56 869.39L1621.19 941.233L1607.9 954.686L1583.81 938.698L1565.69 957.03L1581.95 980.931L1568.66 994.383Z" fill-rule="evenodd"/>
<path clip-path="url(#TextBounds)" d="M1631.33 930.98L1537.42 838.166L1550.72 824.714L1631.17 904.231L1657.5 877.59L1670.95 890.887L1631.33 930.98Z" fill-rule="evenodd"/>
<path clip-path="url(#TextBounds)" d="M1683.18 878.523L1589.27 785.709L1628.9 745.616L1641.56 758.13L1615.23 784.771L1642.79 812.016L1665.74 788.804L1678.4 801.318L1655.46 824.53L1683.02 851.774L1709.35 825.134L1722.8 838.43L1683.18 878.523Z" fill-rule="evenodd"/>
<path clip-path="url(#TextBounds)" d="M1667.08 732.314L1696.36 761.253L1703.92 753.604C1706.26 751.23 1707.8 749.014 1708.53 746.955C1709.27 744.897 1709.41 742.864 1708.96 740.856C1708.42 738.936 1707.38 736.953 1705.84 734.908C1704.3 732.862 1702.34 730.666 1699.97 728.32C1697.59 725.974 1695.38 724.042 1693.31 722.524C1691.25 721.006 1689.17 719.991 1687.07 719.479C1682.95 718.716 1678.59 720.665 1673.99 725.324L1667.08 732.314ZM1735.02 826.066L1641.12 733.252L1662.5 711.623C1678.14 695.797 1695.15 696.966 1713.53 715.128C1719.07 720.603 1722.92 726.11 1725.1 731.648C1727.27 737.187 1727.42 743.283 1725.53 749.938L1782.73 777.796L1768.66 792.04L1716.18 764.941L1708.23 772.985L1748.32 812.614L1735.02 826.066Z" fill-rule="evenodd"/>
<path clip-path="url(#TextBounds)" d="M1721.65 696.101C1717.86 692.364 1715.18 688.403 1713.58 684.216C1711.98 680.029 1711.3 675.881 1711.54 671.771C1711.78 667.836 1712.74 664.049 1714.42 660.412C1716.11 656.774 1718.29 653.593 1720.99 650.867C1723.68 648.141 1726.84 645.916 1730.46 644.19C1734.07 642.464 1737.89 641.415 1741.91 641.042C1745.93 640.843 1750.04 641.519 1754.25 643.068C1758.45 644.617 1762.45 647.26 1766.23 650.997L1815.82 700.01C1819.77 703.921 1822.51 707.926 1824.02 712.026C1825.53 716.126 1826.16 720.143 1825.92 724.079C1825.68 728.189 1824.72 732.062 1823.04 735.7C1821.36 739.338 1819.17 742.519 1816.47 745.245C1813.78 747.97 1810.62 750.196 1807.01 751.922C1803.39 753.647 1799.57 754.609 1795.55 754.808C1791.53 755.181 1787.46 754.636 1783.34 753.174C1779.23 751.712 1775.19 749.026 1771.23 745.115L1721.65 696.101ZM1784.53 731.663C1787.78 734.878 1791.07 736.345 1794.39 736.064C1797.71 735.782 1800.59 734.41 1803.02 731.948C1805.45 729.487 1806.79 726.594 1807.03 723.271C1807.28 719.948 1805.77 716.678 1802.52 713.463L1752.93 664.449C1749.68 661.233 1746.39 659.766 1743.07 660.048C1739.75 660.33 1736.87 661.701 1734.44 664.163C1732.01 666.625 1730.67 669.518 1730.43 672.841C1730.18 676.164 1731.69 679.433 1734.94 682.649L1784.53 731.663Z" fill-rule="evenodd"/>
</g>
</g>
</svg>