<svg stroke-miterlimit="10" style="fill-rule:nonzero;clip-rule:evenodd;stroke-linecap:round;stroke-linejoin:round;" version="1.1" xml:space="preserve" xmlns="http://www.w3.org/2000/svg" xmlns:vectornator="http://vectornator.io" xmlns:xlink="http://www.w3.org/1999/xlink" viewBox="-12.02 -13.37 1053.37 1043.86">
<defs/>
<g id="Layer-3" vectornator:layerName="Layer 3">
<path d="M410.94 321.135C410.94 350.14 409.533 377.078 400.752 404.82C397.761 414.266 388.366 420.68 386.488 430.569C385.002 438.39 386.301 446.288 385.469 454.173C384.519 463.176 380.491 471.553 379.356 479.922C378.058 489.49 377.807 499.366 376.299 508.89C375.214 515.746 371.289 522.305 370.186 529.275C369.636 532.752 370.66 536.514 370.186 540.003C369.258 546.844 365.135 552.606 364.073 559.315C361.724 574.158 361.077 589.901 355.923 604.377C353.666 610.712 350.493 617.114 348.791 623.688C344.268 641.152 343.356 660.533 341.659 678.406C340.151 694.287 334.146 708.841 332.489 724.54C331.664 732.356 331.915 740.439 330.452 748.143C329.131 755.095 324.9 760.754 326.376 768.528C328.652 780.509 333.319 794.297 340.64 803.933C345.114 809.823 350.272 814.887 352.866 822.172C355.733 830.222 356.761 840.276 364.073 845.776C367.51 848.361 371.426 848.714 375.28 850.067C379.472 851.538 380.154 854.989 383.431 857.577C386.8 860.238 391.568 860.781 394.638 864.015C398.357 867.931 400.443 873.71 403.808 877.962C407.976 883.229 413.724 886.258 418.072 890.837C419.472 892.311 419.481 895.044 421.128 896.201C423.091 897.579 426.743 896.344 429.279 898.347C433.234 901.47 434.087 907.393 438.449 910.149C451.496 918.392 456.605 925.272 462.901 940.189C465.311 945.899 470.444 949.507 474.108 954.137C476.078 956.626 476.149 960.577 478.183 962.72C481.15 965.844 487.243 969.349 491.428 970.23C495.052 970.993 501.545 969.905 504.673 972.376C507.183 974.358 508.63 979.287 511.805 980.959C513.02 981.599 514.563 980.612 515.88 980.959C516.973 981.247 518.548 983.02 519.956 982.032C522.591 980.182 527.47 968.245 530.144 964.866C534.756 959.039 540.15 953.865 544.408 947.7C550.635 938.683 554.751 928.202 561.728 919.805C567.439 912.932 575.602 907.039 583.124 902.638C586.18 900.85 589.662 899.699 592.294 897.274C606.95 883.769 615.429 864.77 629.991 851.14C634.516 846.904 639.754 843.603 644.254 839.338C652.585 831.443 659.8 821.895 667.688 813.589C673.849 807.101 682.01 804.944 688.065 798.569C692.777 793.606 696.511 786.975 700.291 781.403C703.063 777.315 703.944 778.628 707.423 774.965C717.744 764.096 726.935 752.963 737.988 742.779C749.549 732.126 764.679 729.692 775.685 718.102C782.518 710.907 788.967 701.97 796.062 694.499C799.365 691.02 804.578 689.334 808.288 685.916C820.731 674.45 832.11 662.414 844.966 651.583C853.914 644.045 866.76 641.041 875.531 633.344C880.896 628.636 884.271 621.713 888.776 616.178C896.071 607.217 901.896 597.199 909.153 588.283C915.065 581.02 925.306 572.576 932.586 566.826C935.828 564.265 939.859 562.386 942.775 559.315C947.166 554.691 948.879 547.529 951.944 542.149C954.635 537.426 960.073 534.671 963.151 530.348C965.449 527.122 968.89 526.45 971.302 523.91C975.329 519.67 983.99 501.521 981.491 494.942C978.516 487.11 973.187 480.533 965.189 478.849C959.971 477.75 954.943 479.886 949.907 476.703C946.487 474.543 943.125 467.182 940.737 463.829C937.41 459.157 932.256 455.97 928.511 452.027C926.294 449.692 924.615 445.779 922.398 443.444C919.69 440.592 916.244 441.534 913.228 439.152C907.969 434.999 907.803 427.072 903.04 423.059C897.661 418.528 889.945 413.561 884.701 408.039C880.045 403.136 878.203 395.967 872.475 391.945C867.696 388.591 860.737 390.537 856.173 387.654C852.213 385.152 850.713 380.703 848.023 376.925C840.745 366.707 829.827 359.246 822.551 349.03C816.464 340.482 810.303 332.913 803.194 325.427C796.646 318.532 786.889 314.516 779.76 308.26C775.096 304.168 775.552 297.462 769.572 294.313" fill="#c5c6c8" fill-rule="evenodd" opacity="1" stroke="none"/>
<path d="M509.767 22.8731C516.451 19.3538 505.512 34.0491 503.654 36.8206C501.421 40.1518 499.001 43.3441 496.523 46.4766C485.367 60.5734 471.654 71.7107 458.825 84.0275C443.901 98.3573 430.214 114.012 415.015 128.016C409.596 133.009 397.846 142.601 392.601 148.401C381.774 160.372 372.836 173.909 362.036 185.952C350.823 198.454 336.892 207.065 325.357 219.211C319.83 225.032 315.98 232.234 311.094 238.523C304.297 247.27 295.572 254.488 288.679 263.199C281.696 272.024 277.118 282.884 269.321 291.094C267.255 293.27 264.255 294.283 262.189 296.459C257.617 301.273 253.875 306.936 248.944 311.479C241.608 318.239 232.969 322.504 226.53 330.791C224.979 332.787 224.093 335.311 222.454 337.228C218.287 342.104 212.188 345.333 207.172 349.03C203.702 351.588 199.24 356.099 195.965 358.686C188.276 364.759 179.278 368.832 171.512 374.779C160.181 383.458 151.074 394.945 139.928 403.747C126.911 414.028 113.482 424.628 101.212 435.934C95.0119 441.647 87.1894 445.378 80.8356 450.954C73.8486 457.085 69.345 465.25 63.5153 472.412C59.3815 477.49 54.6006 481.799 50.2704 486.359C46.4703 490.361 42.1196 512.36 42.1196 518.546C42.1196 520.454 41.2023 525.906 43.1385 527.129C47.1714 529.677 50.7394 526.55 54.3457 530.348C56.0774 532.171 56.8533 534.804 58.4211 536.785C67.6899 548.497 75.5627 559.91 83.8921 572.19C86.5841 576.159 91.1612 577.187 94.0805 580.773C96.9606 584.311 98.6844 589.373 102.231 592.575C105.284 595.331 110.348 596.3 113.438 599.012C116.729 601.899 117.481 608.071 119.552 611.887C122.013 616.422 126.565 618.074 128.721 622.616C130.036 625.386 130.022 629.806 131.778 632.272C133.89 635.237 140.046 634.252 142.985 635.49C150.34 638.588 157.156 641.886 164.381 645.146C168.95 647.208 175.553 647.625 179.663 650.511C182.883 652.771 184.22 660.107 185.776 663.385C187.686 667.407 188.563 666.522 190.87 670.895C192.647 674.262 193.31 678.179 194.946 681.624C199.177 690.537 207.685 696.292 213.285 704.155C215.107 706.714 215.595 710.135 217.36 712.738C220.868 717.91 227.182 719.457 231.624 723.467C235.38 726.857 237.617 731.365 240.794 735.268C243.139 738.15 258.231 747.827 262.189 749.216C264.467 750.016 267.043 749.489 269.321 750.289C273.395 751.719 275.186 755.479 278.491 757.799C281.948 760.226 286.684 761.063 289.698 764.236C292.817 767.521 291.779 772.865 294.792 776.038C298.24 779.669 308.872 782.33 313.131 785.694C315.26 787.375 316.463 790.326 319.244 791.058C336.126 795.503 332.066 768.909 331.47 758.872C330.233 738.032 328.248 717.526 330.452 696.645C331.357 688.068 327.826 679.357 329.433 670.895C330.782 663.793 335.427 657.323 337.583 650.511C339.941 643.064 340.343 633.969 343.696 626.907C351.858 609.717 357.394 595.555 361.017 576.482C366.391 548.183 368.737 519.597 376.299 491.724C377.385 487.721 379.838 484.818 381.394 480.995C384.313 473.822 384.641 465.707 387.507 458.464C389.836 452.578 393.308 446.529 394.638 440.225C395.359 436.809 393.987 432.929 394.638 429.496C397.218 415.912 401.284 401.537 405.846 388.727C407.821 383.18 406.204 385.328 406.865 379.071C408.027 368.052 412.388 356.71 417.053 346.884C419.178 342.409 422.498 335.002 426.223 331.864C428.001 330.365 430.482 330.04 432.336 328.645C440.193 322.735 449.247 314.569 458.825 312.552C461.859 311.913 466.164 313.752 469.014 312.552C471.445 311.528 473.492 308.959 476.146 308.26C478.939 307.525 482.424 307.797 485.315 307.188C495.096 305.128 505.999 308.674 515.88 307.188C520.262 306.528 523.233 304.52 527.088 302.896C531.399 301.08 536.796 304.768 541.352 303.969C547.47 302.895 553.567 301.825 559.691 300.75C567.357 299.405 568.655 303.933 574.973 305.042C584.763 306.76 592.212 302.142 601.463 300.75C607.685 299.814 612.736 299.123 618.783 297.532C622.14 296.648 625.902 297.796 628.972 298.604C633.127 299.698 638.061 297.511 642.217 298.604C644.688 299.255 648.771 301.439 651.386 300.75C658.144 298.971 661.846 293.097 667.688 290.021C669.723 288.95 674.527 289.562 676.857 288.948C684.869 286.839 693.551 292.219 701.309 293.24C706.859 293.97 712.973 294.975 718.63 294.313C722.996 293.802 726.637 291.009 730.856 290.021C737.622 288.438 746.959 287.012 752.251 281.438C758.611 274.741 751.129 255.58 746.138 250.325C741.367 245.3 735 246.892 729.837 242.814C725.117 239.087 723.209 232.484 718.63 228.867C714.144 225.324 706.08 227.924 701.309 224.575C697.015 221.56 697.201 216.594 694.178 212.774C690.908 208.642 685.222 206.637 681.951 202.045C679.349 198.391 676.837 195.586 673.801 192.389C669.83 188.207 668.172 182.282 663.612 178.441C660.431 175.762 657.17 174.282 654.443 170.931C652.233 168.216 650.731 164.877 648.33 162.348C643.968 157.755 637.223 154.944 633.047 150.546C629.477 146.787 629.772 142.129 625.915 138.745C623.015 136.199 619.646 135.926 616.746 133.38C613.291 130.349 611.605 125.821 608.595 122.651C606.381 120.32 603.468 118.747 601.463 116.214C597.071 110.664 590.27 104.443 587.199 97.975C582.497 88.0721 581.21 78.6631 568.86 78.6631" fill="#7c735f" fill-rule="evenodd" opacity="1" stroke="none"/>
</g>
<g id="Layer-1" vectornator:layerName="Layer 1">
<path d="M514.672 989.35L29.1207 508.56L514.672 27.7705L1000.22 508.56L514.672 989.35Z" fill="none" fill-rule="evenodd" opacity="1" stroke="#7c735f" stroke-linecap="round" stroke-linejoin="round" stroke-width="34.0717"/>
</g>
<g id="Layer-2" vectornator:layerName="Layer 2">
<path d="M442.698 308.699L796.902 289.71" fill="#4d4f54" fill-rule="evenodd" opacity="1" stroke="#7c735f" stroke-linecap="round" stroke-linejoin="round" stroke-width="29.2042"/>
<path d="M325.736 767.371L406.97 319.664" fill="#4d4f54" fill-rule="evenodd" opacity="1" stroke="#7c735f" stroke-linecap="round" stroke-linejoin="round" stroke-width="29.5653"/>
<path d="M705.124 290.924C705.124 243.253 743.761 204.608 791.421 204.608C839.082 204.608 877.718 243.253 877.718 290.924C877.718 338.596 839.082 377.241 791.421 377.241C743.761 377.241 705.124 338.596 705.124 290.924Z" fill="#524f4b" fill-rule="evenodd" opacity="1" stroke="#524f4b" stroke-linecap="round" stroke-linejoin="round" stroke-width="41.8604"/>
<path d="M342.808 315.473C342.808 272.685 376.716 237.999 418.543 237.999C460.371 237.999 494.279 272.685 494.279 315.473C494.279 358.261 460.371 392.947 418.543 392.947C376.716 392.947 342.808 358.261 342.808 315.473Z" fill="#524f4b" fill-rule="evenodd" opacity="1" stroke="#524f4b" stroke-linecap="round" stroke-linejoin="round" stroke-width="41.8604"/>
<path d="M564.654 557.163C564.654 533.361 583.129 514.065 605.92 514.065C628.71 514.065 647.185 533.361 647.185 557.163C647.185 580.966 628.71 600.261 605.92 600.261C583.129 600.261 564.654 580.966 564.654 557.163Z" fill="#524f4b" fill-rule="evenodd" opacity="1" stroke="#524f4b" stroke-linecap="round" stroke-linejoin="round" stroke-width="41.8604"/>
<path d="M274.584 799.483C274.584 774.219 295.166 753.739 320.555 753.739C345.944 753.739 366.526 774.219 366.526 799.483C366.526 824.746 345.944 845.226 320.555 845.226C295.166 845.226 274.584 824.746 274.584 799.483Z" fill="#524f4b" fill-rule="evenodd" opacity="1" stroke="#524f4b" stroke-linecap="round" stroke-linejoin="round" stroke-width="41.8604"/>
<path d="M305.512 568.244C305.512 535.014 332.718 508.076 366.278 508.076C399.838 508.076 427.044 535.014 427.044 568.244C427.044 601.474 399.838 628.412 366.278 628.412C332.718 628.412 305.512 601.474 305.512 568.244Z" fill="#524f4b" fill-rule="evenodd" opacity="1" stroke="#524f4b" stroke-linecap="round" stroke-linejoin="round" stroke-width="41.8604"/>
<path d="M626.72 553.69L366.541 575.391" fill="#524f4b" fill-rule="evenodd" opacity="1" stroke="#524f4b" stroke-linecap="round" stroke-linejoin="round" stroke-width="22.7646"/>
</g>
</svg>