<?xml version="1.0" encoding="UTF-8" standalone="no"?>
<!DOCTYPE svg PUBLIC "-//W3C//DTD SVG 1.1//EN" "http://www.w3.org/Graphics/SVG/1.1/DTD/svg11.dtd">
<!-- Created with Vectornator (http://vectornator.io/) -->
<svg height="100%" stroke-miterlimit="10" style="fill-rule:nonzero;clip-rule:evenodd;stroke-linecap:round;stroke-linejoin:round;" version="1.1" viewBox="0 0 2560 1440" width="100%" xml:space="preserve" xmlns="http://www.w3.org/2000/svg" xmlns:vectornator="http://vectornator.io" xmlns:xlink="http://www.w3.org/1999/xlink">
<defs>
<clipPath id="TextBounds">
<rect height="1473.68" width="1468.42" x="953.793" y="462.002"/>
</clipPath>
</defs>
<g id="Layer-3" vectornator:layerName="Layer 3">
<path d="M1215.9 69.0936C1225.43 64.3642 1205.57 65.9313 1202.92 69.6558C1199.74 74.1326 1196.29 78.4224 1192.75 82.632C1176.85 101.576 1157.3 116.543 1139.01 133.095C1117.73 152.352 1098.21 173.39 1076.54 192.209C1068.82 198.919 1052.06 211.808 1044.58 219.603C1029.15 235.69 1016.4 253.882 1001.01 270.066C985.018 286.867 965.156 298.438 948.71 314.761C940.829 322.584 935.34 332.262 928.373 340.714C918.683 352.469 906.244 362.169 896.415 373.875C886.459 385.734 879.932 400.328 868.815 411.362C865.87 414.285 861.592 415.648 858.647 418.571C852.128 425.041 846.793 432.65 839.762 438.756C829.303 447.84 816.985 453.572 807.804 464.708C805.593 467.391 804.33 470.783 801.994 473.359C796.052 479.912 787.356 484.25 780.204 489.219C775.257 492.656 768.896 498.719 764.225 502.195C753.263 510.356 740.434 515.83 729.362 523.822C713.206 535.485 700.221 550.921 684.33 562.751C665.771 576.566 661.235 597.594 643.742 612.786C634.901 620.464 621.439 636.655 612.38 644.148C602.418 652.388 596.457 660.183 588.146 669.808C582.252 676.633 568.66 690.765 562.486 696.893C557.068 702.271 544.877 708.711 544.877 717.023C544.877 719.587 544.769 725.749 546.33 728.557C559.635 752.489 557.167 727.779 562.309 732.883C564.778 735.333 565.884 738.871 568.119 741.534C581.335 757.274 592.56 772.611 604.435 789.113C608.274 794.446 614.799 795.827 618.962 800.647C623.068 805.402 625.526 812.205 630.583 816.507C634.936 820.211 642.155 821.513 646.562 825.158C651.253 829.038 652.326 837.332 655.278 842.459C658.786 848.554 665.277 850.774 668.351 856.877C670.227 860.6 670.206 866.541 672.709 869.854C675.721 873.839 684.498 872.515 688.688 874.179C699.175 878.342 703.086 893.703 713.387 898.084C719.901 900.855 722.411 907.231 728.272 911.109C732.863 914.147 735.976 919.108 738.195 923.514C740.918 928.918 743.589 930.661 746.879 936.538C749.411 941.063 760.44 931.546 762.773 936.176C768.806 948.153 780.936 955.888 788.92 966.454C791.519 969.893 792.213 974.49 794.731 977.988C799.732 984.939 808.734 987.018 815.068 992.406C820.423 996.963 823.612 1003.02 828.141 1008.27C831.485 1012.14 834.888 1022.74 840.532 1024.61C843.78 1025.68 839.145 1027.26 842.393 1028.33C848.202 1030.25 860.009 1044.44 864.721 1047.56C869.65 1050.82 870.968 1053.84 875.265 1058.1C879.712 1062.52 890.815 1082.99 895.112 1087.25C900.027 1092.13 925.206 1071.51 931.278 1076.03C934.313 1078.29 936.029 1082.26 939.994 1083.24C964.064 1089.21 958.275 1053.47 957.426 1039.99C955.662 1011.98 952.832 984.423 955.973 956.361C957.264 944.835 965.047 939.202 967.339 927.83C969.262 918.285 987.073 877.113 990.147 867.958C993.508 857.95 970.077 872.135 974.858 862.645C986.495 839.544 994.387 820.512 999.552 794.88C1007.22 756.851 1010.56 718.435 1021.34 680.978C1022.89 675.599 1026.39 671.698 1028.61 666.56C1032.77 656.921 1025.22 642.363 1029.31 632.63C1032.63 624.719 1030.62 609.637 1032.52 601.165C1033.54 596.575 1038.01 569.817 1038.94 565.205C1042.62 546.95 1056.96 559.781 1063.47 542.565C1066.28 535.112 1063.98 537.998 1064.92 529.589C1066.58 514.782 1072.8 499.54 1079.45 486.335C1082.48 480.321 1087.21 470.367 1092.52 466.15C1095.06 464.136 1098.59 463.699 1101.24 461.825C1112.44 453.883 1125.35 442.909 1139.01 440.198C1143.33 439.339 1149.47 441.811 1153.53 440.198C1157 438.822 1159.92 435.37 1163.7 434.431C1167.68 433.443 1172.24 444.015 1176.36 443.197C1190.3 440.429 1206.26 434.987 1220.35 432.989C1226.6 432.103 1238.26 426.58 1234.79 441.27C1231.33 455.961 1246.28 443.629 1252.77 442.555C1261.5 441.112 1274.87 440.788 1283.6 439.344C1294.53 437.536 1290 433.359 1299.01 434.849C1312.97 437.158 1329.18 426.208 1342.37 424.338C1351.24 423.08 1351.39 433.135 1360.01 430.996C1364.8 429.809 1366.83 424.023 1379.92 428.428C1393.01 432.832 1393.26 426.957 1399.18 428.428C1402.71 429.302 1409.83 425.263 1413.55 424.338C1423.19 421.947 1417.18 432.561 1425.51 428.428C1428.41 426.988 1448.52 422.189 1451.84 421.364C1463.26 418.53 1473.67 412.873 1484.73 414.245C1492.65 415.227 1501.36 416.577 1509.43 415.687C1515.65 415.001 1520.84 411.247 1526.86 409.92C1536.51 407.792 1549.82 405.876 1557.36 398.386C1566.43 389.386 1543.02 391.183 1524.4 380.267C1492.68 361.673 1514.42 370.976 1507.06 365.497C1500.33 360.488 1479.46 330.981 1472.93 326.12C1466.53 321.359 1457.38 308.27 1450.58 303.77C1444.45 299.718 1444.41 301.92 1440.1 296.786C1435.44 291.234 1436.38 293.178 1431.72 287.007C1428.01 282.097 1432.56 292.002 1428.23 287.706C1422.57 282.086 1427.05 283.788 1420.55 278.626C1416.01 275.025 1417.45 272.652 1413.56 268.15C1410.41 264.501 1400.22 258.277 1396.8 254.879C1390.58 248.707 1387.39 241.931 1381.43 236.021C1376.34 230.969 1370.87 224.505 1365.37 219.957C1361.23 216.536 1363.47 192.433 1356.29 208.084C1349.11 223.734 1350.8 204.66 1346.51 200.401C1343.35 197.268 1332.61 188.439 1329.75 185.035C1323.49 177.577 1302 163.694 1297.62 155.002C1290.92 141.694 1240.49 83.7609 1222.89 83.7609" fill="#596377" fill-rule="evenodd" opacity="1" stroke="none"/>
<path d="M1071.48 466.479C1071.48 506.749 1052.38 530.23 1040.24 568.746C1036.11 581.861 1027.33 599.673 1024.74 613.402C1022.69 624.26 1040.64 644.984 1021.64 646.274C1002.64 647.564 1018.55 668.95 1014.81 689.069C1011.08 709.189 1011.32 715.541 1009.23 728.764C1007.73 738.282 1016.71 745.78 1015.18 755.456C1014.42 760.284 1015.84 765.507 1015.18 770.352C1013.9 779.85 1008.2 787.85 1006.74 797.165C1003.49 817.772 1002.6 839.629 995.477 859.727C992.36 868.523 987.976 877.411 985.624 886.539C979.375 910.785 978.116 937.693 975.771 962.507C973.687 984.557 965.391 1004.76 963.103 1026.56C961.963 1037.41 953.573 1044.93 951.552 1055.62C949.728 1065.27 952.618 1076.84 954.657 1087.63C957.801 1104.27 964.25 1123.41 974.363 1136.79C980.545 1144.96 987.67 1152 991.254 1162.11C995.214 1173.29 996.636 1187.24 1006.74 1194.88C1011.48 1198.47 1016.9 1198.96 1022.22 1200.84C1028.01 1202.88 1028.95 1207.67 1033.48 1211.27C1038.14 1214.96 1044.72 1215.71 1048.96 1220.2C1054.1 1225.64 1056.98 1233.66 1061.63 1239.57C1067.39 1246.88 1075.33 1251.09 1081.34 1257.44C1083.27 1259.49 1083.28 1263.28 1085.56 1264.89C1088.27 1266.8 1093.32 1265.09 1096.82 1267.87C1102.28 1272.21 1103.46 1280.43 1109.49 1284.26C1127.51 1295.7 1134.57 1305.25 1143.27 1325.96C1146.6 1333.89 1153.69 1338.9 1158.75 1345.33C1161.47 1348.78 1161.57 1354.27 1164.38 1357.24C1168.48 1361.58 1176.9 1366.45 1182.68 1367.67C1187.69 1368.73 1196.66 1367.22 1200.98 1370.65C1204.45 1373.4 1206.45 1380.25 1210.83 1382.57C1212.51 1383.46 1214.64 1382.09 1216.46 1382.57C1217.97 1382.97 1220.15 1385.43 1222.09 1384.06C1225.73 1381.49 1232.47 1364.92 1236.17 1360.22C1242.54 1352.13 1249.99 1344.95 1255.88 1336.39C1264.48 1323.87 1270.16 1309.32 1279.8 1297.66C1287.69 1288.12 1298.97 1279.94 1309.36 1273.83C1313.59 1271.35 1318.4 1269.75 1322.03 1266.38C1342.28 1247.63 1353.99 1221.25 1374.11 1202.33C1380.36 1196.45 1387.6 1191.86 1393.82 1185.94C1405.32 1174.98 1415.29 1161.73 1426.19 1150.19C1434.7 1141.19 1445.98 1138.19 1454.34 1129.34C1460.85 1122.45 1466.01 1113.24 1471.23 1105.51C1475.06 1099.83 1476.28 1101.65 1481.08 1096.57C1495.34 1081.48 1508.04 1066.02 1523.31 1051.88C1539.28 1037.09 1560.19 1033.71 1575.39 1017.62C1584.83 1007.63 1593.74 995.224 1603.54 984.851C1608.11 980.021 1615.31 977.679 1620.43 972.934C1637.62 957.015 1653.34 940.305 1671.11 925.268C1683.47 914.802 1701.21 910.631 1713.33 899.945C1720.74 893.409 1725.41 883.797 1731.63 876.112C1741.71 863.67 1749.75 849.762 1759.78 837.383C1767.95 827.299 1782.1 815.575 1792.16 807.592C1796.63 804.036 1802.2 801.427 1806.23 797.165C1812.3 790.745 1814.66 780.8 1818.9 773.331C1822.62 766.774 1830.13 762.948 1834.38 756.946C1837.56 752.468 1842.31 751.535 1845.64 748.009C1851.21 742.121 1863.17 716.924 1859.72 707.79C1855.61 696.916 1848.25 687.785 1837.2 685.447C1829.99 683.921 1823.04 686.886 1816.08 682.467C1811.36 679.468 1806.71 669.248 1803.42 664.592C1798.82 658.107 1791.7 653.682 1786.52 648.207C1783.46 644.966 1781.14 639.532 1778.08 636.291C1774.34 632.331 1769.58 633.639 1765.41 630.332C1758.15 624.566 1757.92 613.56 1751.34 607.989C1743.91 601.698 1733.24 594.801 1726 587.135C1719.57 580.328 1717.02 570.374 1709.11 564.791C1702.51 560.133 1692.89 562.836 1686.59 558.833C1681.12 555.359 1679.05 549.183 1675.33 543.937C1665.27 529.751 1650.19 519.392 1640.14 505.208C1631.73 493.341 1623.22 482.832 1613.4 472.437C1604.35 462.865 1590.87 457.29 1581.02 448.604C1574.58 442.922 1575.21 433.612 1566.95 429.24" fill="#bec1c9" fill-rule="evenodd" opacity="1" stroke="none"/>
</g>
<g id="Layer-2" vectornator:layerName="Layer 2">
<path d="M1204.95 1386.94L535.609 724.161L1204.95 61.3815L1874.3 724.161L1204.95 1386.94Z" fill="#000000" fill-opacity="0" fill-rule="evenodd" opacity="1" stroke="#bec1c9" stroke-linecap="round" stroke-linejoin="round" stroke-width="34.0717"/>
</g>
<g id="Layer-1" vectornator:layerName="Layer 1">
<path d="M968.034 457.986C968.034 399.002 1014.78 351.186 1072.44 351.186C1130.1 351.186 1176.84 399.002 1176.84 457.986C1176.84 516.97 1130.1 564.786 1072.44 564.786C1014.78 564.786 968.034 516.97 968.034 457.986Z" fill="#ffffff" fill-rule="evenodd" opacity="1" stroke="none"/>
<path d="M1273.85 791.161C1273.85 758.349 1299.32 731.75 1330.74 731.75C1362.16 731.75 1387.62 758.349 1387.62 791.161C1387.62 823.973 1362.16 850.572 1330.74 850.572C1299.32 850.572 1273.85 823.973 1273.85 791.161Z" fill="#ffffff" fill-rule="evenodd" opacity="1" stroke="none"/>
<path d="M916.621 806.436C916.621 760.628 954.125 723.493 1000.39 723.493C1046.65 723.493 1084.15 760.628 1084.15 806.436C1084.15 852.244 1046.65 889.379 1000.39 889.379C954.125 889.379 916.621 852.244 916.621 806.436Z" fill="#ffffff" fill-rule="evenodd" opacity="1" stroke="none"/>
<path d="M1105.73 448.647L1574.01 422.471" fill="#ffffff" fill-rule="evenodd" opacity="1" stroke="#ffffff" stroke-linecap="round" stroke-linejoin="round" stroke-width="29.2042"/>
<path d="M944.499 1080.94L1056.48 463.763" fill="#ffffff" fill-rule="evenodd" opacity="1" stroke="#ffffff" stroke-linecap="round" stroke-linejoin="round" stroke-width="29.5653"/>
<path d="M1359.41 786.373L1000.75 816.289" fill="#ffffff" fill-rule="evenodd" opacity="1" stroke="#ffffff" stroke-linecap="round" stroke-linejoin="round" stroke-width="22.7646"/>
<path d="M937.368 1062.16C911.857 1062.16 889.992 1077.24 879.944 1098.86L964.206 1182.13C985.727 1172.06 1000.74 1150.42 1000.74 1125.18C1000.74 1090.36 972.367 1062.16 937.368 1062.16Z" fill="#ffffff" fill-rule="evenodd" opacity="1" stroke="none"/>
<path d="M1511.65 331.673C1484.73 353.488 1467.5 386.812 1467.5 424.163C1467.5 489.879 1520.74 543.147 1586.44 543.147C1624.34 543.147 1658.05 525.365 1679.83 497.742L1511.65 331.673Z" fill="#ffffff" fill-rule="evenodd" opacity="1" stroke="none"/>
</g>
<g id="Layer-4" vectornator:layerName="Layer 4">
<g fill="#596377" opacity="1" stroke="#373533" stroke-linecap="round" stroke-linejoin="round" stroke-width="2.34763">
<path clip-path="url(#TextBounds)" d="M1208.39 1196.22C1214.6 1196.12 1220.4 1197.28 1225.81 1199.7C1231.21 1202.11 1236.28 1205.65 1241.01 1210.33C1245.24 1214.5 1248.7 1219.23 1251.39 1224.52C1254.09 1229.8 1255.39 1235.45 1255.3 1241.47C1255.21 1247.86 1253.78 1254.14 1250.99 1260.3C1248.2 1266.46 1243.07 1273.33 1235.59 1280.89C1233.22 1283.29 1230.23 1286.22 1226.62 1289.69C1223 1293.16 1220.01 1296.1 1217.64 1298.49C1214.96 1301.2 1211.65 1304.61 1207.73 1308.71C1203.8 1312.8 1200.78 1315.99 1198.66 1318.26C1198.47 1318.45 1198.05 1318.37 1197.39 1318.03C1196.73 1317.69 1196.21 1317.33 1195.83 1316.96C1195.52 1316.65 1195.19 1316.16 1194.84 1315.51C1194.49 1314.85 1194.38 1314.4 1194.5 1314.14C1197.74 1309.99 1199.36 1306.76 1199.38 1304.48C1199.4 1302.19 1198.12 1299.77 1195.53 1297.21L1154 1256.17C1151.42 1253.61 1148.98 1252.35 1146.69 1252.4C1144.4 1252.44 1141.2 1254.11 1137.08 1257.39C1136.83 1257.52 1136.38 1257.41 1135.72 1257.07C1135.06 1256.73 1134.57 1256.4 1134.25 1256.09C1133.88 1255.72 1133.51 1255.2 1133.16 1254.55C1132.81 1253.89 1132.73 1253.47 1132.92 1253.28C1135.17 1251.13 1138.31 1248.07 1142.37 1244.1C1146.42 1240.13 1149.78 1236.79 1152.46 1234.07C1154.83 1231.68 1157.75 1228.64 1161.2 1224.95C1164.66 1221.26 1167.54 1218.25 1169.85 1215.92C1176.21 1209.48 1182.65 1204.63 1189.19 1201.37C1195.72 1198.1 1202.12 1196.38 1208.39 1196.22ZM1221.75 1229.81C1212.92 1221.09 1204.61 1215.52 1196.83 1213.12C1189.04 1210.72 1181.47 1213.31 1174.11 1220.87L1170.65 1224.75C1169.41 1226.01 1168.54 1227.58 1168.05 1229.47C1167.56 1231.35 1168.45 1233.42 1170.72 1235.66L1215.84 1280.26C1218.11 1282.5 1220.18 1283.37 1222.06 1282.85C1223.94 1282.34 1225.5 1281.45 1226.75 1280.19L1230.58 1276.69C1237.63 1269.57 1240.09 1262.12 1237.98 1254.36C1235.86 1246.6 1230.45 1238.42 1221.75 1229.81Z" fill-rule="evenodd"/>
<path clip-path="url(#TextBounds)" d="M1324.17 1182.19C1324.3 1182.44 1324.43 1182.63 1324.55 1182.76C1324.68 1182.88 1324.71 1183.1 1324.65 1183.41C1324.85 1185.98 1324.15 1188.96 1322.54 1192.36C1320.93 1195.75 1318.82 1198.78 1316.2 1201.43C1313.64 1204.01 1310.99 1205.53 1308.23 1205.99C1305.47 1206.44 1302.87 1205.95 1300.42 1204.53C1301.19 1208.16 1300.99 1211.61 1299.82 1214.88C1298.65 1218.14 1296.44 1221.42 1293.2 1224.69C1289.64 1228.29 1285.82 1230.52 1281.72 1231.39C1277.61 1232.26 1273.89 1231.05 1270.55 1227.74C1266.83 1224.06 1265.83 1219.02 1267.55 1212.62C1269.26 1206.21 1273.82 1197.13 1281.21 1185.36L1272.22 1175.91C1270.27 1173.98 1268.69 1172.99 1267.5 1172.93C1266.31 1172.88 1265.06 1173.51 1263.75 1174.83C1262.44 1176.16 1261.5 1177.62 1260.91 1179.22C1260.32 1180.83 1260.76 1182.47 1262.21 1184.15C1265.81 1188.33 1267.71 1191.83 1267.91 1194.65C1268.12 1197.47 1266.94 1200.18 1264.39 1202.76C1262.08 1205.1 1259.64 1206.21 1257.07 1206.1C1254.5 1205.99 1252.27 1205 1250.37 1203.13C1247.22 1200.01 1246.86 1194.57 1249.29 1186.81C1251.72 1179.06 1256.09 1171.99 1262.38 1165.62C1268.12 1159.82 1273.48 1157.3 1278.47 1158.05C1283.46 1158.81 1288.35 1161.74 1293.14 1166.86L1309.13 1183.6C1311.22 1185.91 1312.96 1187.01 1314.37 1186.91C1315.78 1186.8 1316.83 1186.41 1317.52 1185.71C1318.08 1185.14 1318.51 1184.51 1318.82 1183.82C1319.13 1183.13 1319.32 1182.44 1319.37 1181.75C1319.43 1181.31 1320.09 1181.12 1321.35 1181.18C1322.6 1181.23 1323.54 1181.57 1324.17 1182.19ZM1284.53 1189.01C1281.73 1193.6 1280.28 1197.47 1280.17 1200.6C1280.07 1203.74 1281.43 1206.71 1284.27 1209.51C1285.85 1211.07 1287.53 1211.89 1289.31 1211.97C1291.1 1212.06 1292.74 1211.34 1294.24 1209.83C1295.49 1208.57 1296.23 1207.03 1296.47 1205.21C1296.71 1203.39 1295.85 1201.26 1293.89 1198.83L1284.53 1189.01Z" fill-rule="evenodd"/>
<path clip-path="url(#TextBounds)" d="M1385.63 1125.12C1386.01 1125.5 1386.37 1126.01 1386.72 1126.67C1387.07 1127.33 1387.15 1127.75 1386.96 1127.94C1385.03 1129.89 1382.71 1132.05 1379.99 1134.42C1377.28 1136.79 1374.83 1139.08 1372.65 1141.28C1370.53 1143.43 1368.54 1145.63 1366.67 1147.9C1364.8 1150.17 1362.93 1152.25 1361.06 1154.14C1360.88 1154.33 1360.45 1154.25 1359.79 1153.91C1359.13 1153.57 1358.61 1153.21 1358.24 1152.84C1357.86 1152.47 1357.51 1151.97 1357.19 1151.34C1356.87 1150.72 1356.78 1150.28 1356.9 1150.03C1357.96 1148.58 1358.28 1147.02 1357.86 1145.37C1357.45 1143.71 1355.72 1141.38 1352.7 1138.39L1337.66 1123.52C1334.5 1120.41 1331.91 1118.56 1329.87 1117.97C1327.82 1117.39 1325.71 1118.2 1323.53 1120.41C1321.72 1122.24 1320.87 1124.33 1320.98 1126.68C1321.09 1129.03 1321.94 1132.11 1323.53 1135.93L1339.51 1151.73C1342.29 1154.47 1344.57 1156.13 1346.36 1156.72C1348.15 1157.3 1349.73 1157.03 1351.11 1155.89C1351.29 1155.7 1351.7 1155.76 1352.33 1156.07C1352.96 1156.38 1353.49 1156.76 1353.93 1157.19C1354.38 1157.63 1354.76 1158.16 1355.07 1158.78C1355.39 1159.41 1355.45 1159.82 1355.27 1160C1353.34 1161.96 1351.28 1163.85 1349.09 1165.68C1346.91 1167.51 1344.73 1169.53 1342.55 1171.74C1340.36 1173.95 1338.11 1176.42 1335.77 1179.16C1333.44 1181.9 1331.33 1184.22 1329.46 1186.11C1329.28 1186.3 1328.87 1186.24 1328.24 1185.93C1327.61 1185.62 1327.08 1185.25 1326.63 1184.81C1326.19 1184.38 1325.83 1183.86 1325.54 1183.27C1325.26 1182.67 1325.18 1182.25 1325.3 1182C1327.66 1178.85 1328.75 1176.46 1328.55 1174.83C1328.35 1173.2 1326.71 1170.86 1323.62 1167.81L1308.77 1153.13C1306.12 1150.51 1304.15 1149.13 1302.87 1148.98C1301.58 1148.83 1299.66 1149.8 1297.1 1151.88C1296.91 1152.07 1296.49 1151.99 1295.83 1151.65C1295.17 1151.31 1294.68 1150.98 1294.36 1150.67C1294.05 1150.36 1293.73 1149.89 1293.42 1149.27C1293.1 1148.64 1293.03 1148.24 1293.22 1148.05C1294.77 1145.34 1296.69 1141.41 1298.98 1136.26C1301.27 1131.1 1302.85 1127.21 1303.71 1124.57C1303.77 1124.25 1303.93 1123.78 1304.17 1123.15C1304.42 1122.53 1304.7 1122.05 1305.01 1121.74C1305.76 1120.98 1306.45 1120.57 1307.07 1120.5C1307.7 1120.44 1308.11 1120.56 1308.3 1120.87L1317.01 1130.23C1315.16 1125.91 1314.78 1121.57 1315.85 1117.21C1316.92 1112.84 1318.95 1109.15 1321.94 1106.12C1326.62 1101.39 1331.75 1099.17 1337.33 1099.45C1342.91 1099.73 1347.53 1101.68 1351.19 1105.29L1368.5 1122.4C1371.52 1125.4 1373.9 1127 1375.63 1127.21C1377.35 1127.41 1379.74 1126.29 1382.8 1123.82C1382.99 1123.64 1383.43 1123.73 1384.12 1124.1C1384.81 1124.47 1385.31 1124.81 1385.63 1125.12Z" fill-rule="evenodd"/>
<path clip-path="url(#TextBounds)" d="M1444.16 1065.91C1444.54 1066.28 1444.9 1066.8 1445.25 1067.46C1445.6 1068.11 1445.68 1068.53 1445.49 1068.72C1443.56 1070.68 1441.24 1072.84 1438.52 1075.21C1435.81 1077.57 1433.36 1079.86 1431.18 1082.07C1429.06 1084.21 1427.07 1086.42 1425.2 1088.69C1423.33 1090.95 1421.46 1093.03 1419.59 1094.93C1419.41 1095.11 1418.98 1095.04 1418.32 1094.7C1417.66 1094.36 1417.14 1094 1416.76 1093.63C1416.39 1093.25 1416.04 1092.75 1415.72 1092.13C1415.4 1091.5 1415.31 1091.06 1415.43 1090.81C1416.49 1089.36 1416.81 1087.81 1416.39 1086.15C1415.97 1084.49 1414.25 1082.17 1411.22 1079.17L1396.18 1064.31C1393.03 1061.19 1390.43 1059.34 1388.39 1058.76C1386.35 1058.17 1384.24 1058.99 1382.06 1061.19C1380.25 1063.02 1379.4 1065.11 1379.51 1067.46C1379.62 1069.81 1380.47 1072.9 1382.06 1076.71L1398.04 1092.51C1400.82 1095.25 1403.1 1096.92 1404.89 1097.5C1406.68 1098.09 1408.26 1097.81 1409.63 1096.68C1409.82 1096.49 1410.23 1096.55 1410.86 1096.86C1411.49 1097.17 1412.02 1097.54 1412.46 1097.98C1412.9 1098.41 1413.28 1098.94 1413.6 1099.57C1413.92 1100.19 1413.98 1100.6 1413.8 1100.79C1411.86 1102.75 1409.81 1104.64 1407.62 1106.47C1405.44 1108.3 1403.26 1110.32 1401.07 1112.53C1398.89 1114.73 1396.63 1117.21 1394.3 1119.95C1391.96 1122.69 1389.86 1125.01 1387.99 1126.9C1387.8 1127.09 1387.4 1127.03 1386.77 1126.72C1386.14 1126.41 1385.6 1126.03 1385.16 1125.6C1384.72 1125.16 1384.36 1124.65 1384.07 1124.05C1383.79 1123.46 1383.7 1123.04 1383.83 1122.78C1386.19 1119.64 1387.28 1117.25 1387.08 1115.62C1386.88 1113.99 1385.24 1111.65 1382.15 1108.59L1367.3 1093.91C1364.65 1091.3 1362.68 1089.91 1361.39 1089.76C1360.11 1089.61 1358.19 1090.58 1355.63 1092.67C1355.44 1092.85 1355.02 1092.78 1354.36 1092.44C1353.7 1092.1 1353.21 1091.77 1352.89 1091.46C1352.58 1091.15 1352.26 1090.68 1351.94 1090.05C1351.63 1089.43 1351.56 1089.02 1351.75 1088.83C1353.3 1086.13 1355.22 1082.2 1357.51 1077.04C1359.8 1071.89 1361.38 1067.99 1362.24 1065.35C1362.3 1065.04 1362.45 1064.57 1362.7 1063.94C1362.95 1063.31 1363.23 1062.84 1363.54 1062.52C1364.29 1061.77 1364.97 1061.36 1365.6 1061.29C1366.23 1061.22 1366.64 1061.35 1366.83 1061.66L1375.53 1071.01C1373.69 1066.7 1373.3 1062.36 1374.38 1057.99C1375.45 1053.63 1377.48 1049.93 1380.47 1046.91C1385.15 1042.18 1390.27 1039.95 1395.86 1040.23C1401.44 1040.52 1406.06 1042.46 1409.71 1046.08L1427.03 1063.19C1430.05 1066.18 1432.43 1067.78 1434.15 1067.99C1435.88 1068.2 1438.27 1067.07 1441.33 1064.61C1441.52 1064.42 1441.95 1064.51 1442.65 1064.88C1443.34 1065.26 1443.84 1065.6 1444.16 1065.91Z" fill-rule="evenodd"/>
<path clip-path="url(#TextBounds)" d="M1456.62 976.869C1457.06 977.306 1457.44 977.836 1457.75 978.462C1458.07 979.087 1458.14 979.494 1457.95 979.683C1456.02 982.014 1454.92 984.419 1454.65 986.897C1454.39 989.375 1454.79 992.022 1455.88 994.837L1476.51 1050.39C1480.34 1060.9 1482.59 1068.62 1483.28 1073.54C1483.97 1078.45 1482.56 1082.68 1479.07 1086.21C1476.64 1088.67 1474.14 1090 1471.57 1090.2C1469 1090.41 1466.71 1089.51 1464.69 1087.52C1462.74 1085.58 1461.77 1083.25 1461.78 1080.53C1461.8 1077.8 1462.83 1075.39 1464.89 1073.31C1466.51 1071.67 1468.1 1070.66 1469.67 1070.28C1471.23 1069.89 1472.42 1069.29 1473.23 1068.47C1473.98 1067.71 1474.25 1066.27 1474.05 1064.14C1473.85 1062.01 1472.51 1057.91 1470.03 1051.84L1468.31 1047.52L1419.41 1031.73C1416.33 1030.68 1413.79 1030.19 1411.79 1030.27C1409.78 1030.34 1407.4 1031.45 1404.66 1033.6C1404.41 1033.73 1403.98 1033.65 1403.39 1033.37C1402.79 1033.09 1402.27 1032.74 1401.83 1032.3C1401.39 1031.86 1401.01 1031.33 1400.69 1030.71C1400.37 1030.08 1400.31 1029.68 1400.5 1029.49C1402.43 1027.53 1404.77 1025.35 1407.51 1022.96C1410.26 1020.56 1412.72 1018.26 1414.9 1016.05C1417.08 1013.84 1419.43 1011.27 1421.96 1008.34C1424.48 1005.41 1426.71 1002.97 1428.64 1001.01C1428.82 1000.83 1429.25 1000.9 1429.91 1001.24C1430.57 1001.58 1431.09 1001.94 1431.47 1002.31C1431.78 1002.63 1432.13 1003.13 1432.51 1003.81C1432.89 1004.5 1432.99 1004.94 1432.8 1005.13C1431.49 1006.7 1430.64 1008.13 1430.24 1009.42C1429.84 1010.71 1430.11 1011.82 1431.06 1012.76C1431.75 1013.44 1432.49 1013.95 1433.28 1014.29C1434.06 1014.64 1434.86 1014.96 1435.68 1015.27L1459.15 1023.5L1450.17 1000.61C1449.79 999.731 1449.49 999.09 1449.27 998.684C1449.05 998.278 1448.65 997.794 1448.08 997.233C1447.07 996.236 1445.91 995.772 1444.6 995.843C1443.28 995.913 1441.59 996.738 1439.53 998.318C1439.28 998.444 1438.86 998.369 1438.26 998.09C1437.66 997.811 1437.14 997.454 1436.7 997.017C1436.26 996.581 1435.88 996.05 1435.56 995.425C1435.25 994.8 1435.18 994.393 1435.37 994.204C1437.3 992.249 1439.09 990.624 1440.75 989.329C1442.4 988.034 1444.13 986.472 1445.94 984.643C1447 983.571 1448.18 982.185 1449.49 980.485C1450.8 978.784 1452.23 977.146 1453.79 975.569C1453.97 975.38 1454.38 975.44 1455.01 975.75C1455.64 976.06 1456.18 976.433 1456.62 976.869Z" fill-rule="evenodd"/>
<path clip-path="url(#TextBounds)" d="M1536.05 889.131C1536.3 889.38 1536.29 889.929 1536.01 890.777C1535.73 891.625 1535.31 892.333 1534.75 892.9C1534.5 893.153 1534.11 893.421 1533.58 893.707C1533.05 893.992 1532.72 894.072 1532.59 893.947C1527.81 890.339 1522.12 888.178 1515.53 887.464C1508.95 886.75 1502.91 889.167 1497.42 894.717L1491.81 900.392C1490.51 901.716 1489.57 903.289 1489.02 905.111C1488.47 906.932 1489.42 909.058 1491.88 911.489L1511.84 931.217L1516.51 926.487C1519.69 923.271 1521.27 919.782 1521.25 916.02C1521.23 912.259 1519.86 908.662 1517.14 905.229C1516.95 905.042 1517.01 904.634 1517.32 904.005C1517.63 903.377 1518.01 902.841 1518.44 902.4C1518.88 901.959 1519.41 901.579 1520.03 901.262C1520.66 900.945 1521.07 900.88 1521.26 901.067C1523.59 903.373 1525.67 905.618 1527.5 907.802C1529.33 909.986 1531.32 912.137 1533.46 914.256C1535.67 916.438 1537.83 918.385 1539.94 920.097C1542.05 921.808 1544.24 923.786 1546.51 926.03C1546.7 926.217 1546.64 926.625 1546.33 927.254C1546.02 927.883 1545.65 928.418 1545.21 928.859C1544.77 929.301 1544.24 929.68 1543.62 929.997C1542.99 930.314 1542.59 930.379 1542.4 930.192C1538.68 927.393 1535.07 925.972 1531.56 925.929C1528.05 925.887 1524.58 927.6 1521.15 931.069L1516.47 935.798L1534.82 953.936C1537.35 956.429 1539.92 957.543 1542.56 957.277C1545.19 957.011 1548.5 955.236 1552.49 951.952C1552.68 951.763 1553.12 951.855 1553.81 952.227C1554.5 952.599 1555.01 952.941 1555.32 953.252C1555.7 953.626 1556.06 954.142 1556.41 954.798C1556.76 955.454 1556.84 955.877 1556.66 956.066C1553.6 959.156 1550.31 962.326 1546.79 965.575C1543.27 968.825 1540.07 971.9 1537.2 974.801C1534.34 977.702 1531.44 980.791 1528.51 984.068C1525.58 987.345 1522.59 990.529 1519.54 993.619C1519.35 993.808 1518.94 993.748 1518.31 993.438C1517.69 993.128 1517.15 992.755 1516.71 992.319C1516.39 992.007 1516.06 991.523 1515.71 990.867C1515.36 990.211 1515.25 989.757 1515.38 989.505C1518.55 985.411 1520.15 982.22 1520.16 979.932C1520.18 977.643 1518.9 975.221 1516.31 972.665L1474.79 931.621C1472.2 929.065 1469.76 927.81 1467.48 927.855C1465.19 927.899 1462.02 929.532 1457.96 932.754C1457.71 932.88 1457.25 932.773 1456.59 932.432C1455.93 932.091 1455.44 931.765 1455.13 931.453C1454.69 931.017 1454.31 930.486 1453.99 929.861C1453.67 929.236 1453.61 928.829 1453.8 928.64C1457.23 925.297 1462.12 920.535 1468.48 914.353C1474.84 908.172 1480.01 903.063 1484 899.027C1487.55 895.433 1492.4 890.436 1498.54 884.036C1504.68 877.636 1509.58 872.451 1513.26 868.479C1515.97 871.16 1519.66 874.586 1524.32 878.76C1528.99 882.934 1532.89 886.391 1536.05 889.131Z" fill-rule="evenodd"/>
<path clip-path="url(#TextBounds)" d="M1624.76 878.08C1624.89 878.331 1625.01 878.518 1625.14 878.643C1625.27 878.767 1625.3 878.986 1625.24 879.3C1625.44 881.87 1624.74 884.852 1623.13 888.247C1621.52 891.642 1619.4 894.664 1616.79 897.313C1614.23 899.898 1611.57 901.418 1608.82 901.873C1606.06 902.328 1603.46 901.842 1601 900.414C1601.78 904.046 1601.58 907.496 1600.41 910.763C1599.23 914.03 1597.03 917.303 1593.79 920.582C1590.23 924.177 1586.41 926.409 1582.3 927.279C1578.2 928.15 1574.48 926.933 1571.14 923.63C1567.42 919.952 1566.42 914.911 1568.13 908.506C1569.85 902.1 1574.41 893.014 1581.8 881.246L1572.81 871.8C1570.86 869.868 1569.28 868.874 1568.09 868.818C1566.9 868.762 1565.65 869.397 1564.34 870.721C1563.03 872.045 1562.08 873.508 1561.5 875.111C1560.91 876.713 1561.34 878.356 1562.8 880.04C1566.39 884.22 1568.3 887.72 1568.5 890.54C1568.7 893.361 1567.53 896.064 1564.97 898.649C1562.67 900.982 1560.23 902.094 1557.66 901.983C1555.09 901.873 1552.85 900.883 1550.96 899.013C1547.81 895.896 1547.45 890.459 1549.88 882.702C1552.31 874.945 1556.67 867.881 1562.97 861.512C1568.7 855.711 1574.07 853.187 1579.05 853.942C1584.04 854.696 1588.94 857.63 1593.73 862.744L1609.72 879.485C1611.8 881.792 1613.55 882.895 1614.96 882.793C1616.37 882.691 1617.42 882.293 1618.1 881.599C1618.67 881.031 1619.1 880.402 1619.41 879.71C1619.72 879.019 1619.9 878.328 1619.96 877.638C1620.02 877.199 1620.68 877.007 1621.93 877.062C1623.19 877.118 1624.13 877.457 1624.76 878.08ZM1585.11 884.895C1582.32 889.488 1580.87 893.352 1580.76 896.488C1580.65 899.624 1582.02 902.594 1584.86 905.399C1586.43 906.957 1588.11 907.778 1589.9 907.861C1591.69 907.945 1593.33 907.23 1594.83 905.717C1596.07 904.455 1596.82 902.915 1597.06 901.095C1597.3 899.276 1596.44 897.149 1594.48 894.715L1585.11 884.895Z" fill-rule="evenodd"/>
<path clip-path="url(#TextBounds)" d="M1656.11 851.282C1656.49 851.656 1656.85 852.172 1657.2 852.828C1657.55 853.484 1657.63 853.907 1657.44 854.096C1655.51 856.051 1653 858.401 1649.91 861.146C1646.83 863.892 1644.19 866.368 1642.01 868.575C1639.89 870.719 1637.65 873.178 1635.28 875.95C1632.92 878.723 1630.8 881.055 1628.93 882.947C1628.74 883.136 1628.32 883.06 1627.66 882.719C1627 882.378 1626.48 882.02 1626.1 881.646C1625.78 881.335 1625.45 880.851 1625.1 880.195C1624.75 879.538 1624.64 879.084 1624.77 878.833C1626.82 876.25 1627.82 873.972 1627.78 871.997C1627.74 870.022 1626.2 867.539 1623.18 864.547L1584.11 825.933C1581.59 823.44 1579.47 822.277 1577.74 822.444C1576.02 822.611 1573.85 823.767 1571.23 825.914C1570.98 826.041 1570.54 825.95 1569.91 825.64C1569.28 825.33 1568.81 825.019 1568.49 824.708C1568.18 824.396 1567.86 823.928 1567.54 823.303C1567.23 822.677 1567.16 822.27 1567.35 822.081C1569.65 818.369 1571.91 814.029 1574.14 809.063C1576.37 804.097 1578.1 799.855 1579.33 796.337C1579.39 796.023 1579.54 795.552 1579.79 794.923C1580.04 794.295 1580.32 793.823 1580.63 793.508C1581.38 792.751 1582.07 792.339 1582.69 792.273C1583.32 792.207 1583.73 792.33 1583.92 792.642C1586 794.95 1588.56 797.787 1591.58 801.156C1594.61 804.524 1597.14 807.205 1599.15 809.199L1638.98 848.561C1641.94 851.49 1644.46 852.981 1646.53 853.031C1648.6 853.082 1650.85 852.066 1653.28 849.982C1653.47 849.793 1653.91 849.885 1654.6 850.257C1655.29 850.629 1655.8 850.971 1656.11 851.282Z" fill-rule="evenodd"/>
<path clip-path="url(#TextBounds)" d="M1680.06 780.514C1680.5 780.95 1680.69 781.451 1680.63 782.015C1680.57 782.58 1680.26 783.146 1679.7 783.713L1653.89 809.821C1654.27 810.32 1654.83 810.928 1655.55 811.645C1656.28 812.362 1656.95 813.032 1657.58 813.655C1662.88 818.891 1667.43 821.67 1671.22 821.993C1675.02 822.316 1678.54 820.837 1681.78 817.558C1684.02 815.288 1685.98 812.173 1687.65 808.213C1689.32 804.254 1689.92 800.802 1689.47 797.858C1689.4 797.67 1689.64 797.527 1690.17 797.43C1690.7 797.333 1691.19 797.252 1691.63 797.187C1692.25 797.183 1692.85 797.242 1693.41 797.364C1693.98 797.486 1694.42 797.703 1694.74 798.015C1694.86 798.14 1694.97 798.28 1695.07 798.436C1695.16 798.592 1695.21 798.796 1695.21 799.047C1695.92 802.867 1695.82 807.382 1694.91 812.591C1694 817.8 1690.99 822.99 1685.88 828.162C1679.21 834.909 1671.43 838.434 1662.53 838.737C1653.63 839.04 1646.21 836.261 1640.28 830.402C1633.6 823.795 1630.23 816.134 1630.18 807.42C1630.13 798.705 1633.66 790.753 1640.76 783.564C1647.24 777.006 1654.12 773.58 1661.39 773.287C1668.66 772.994 1674.89 775.403 1680.06 780.514ZM1657.44 789.204C1655.55 787.334 1653.52 786.17 1651.36 785.713C1649.19 785.255 1647.26 785.877 1645.58 787.58C1643.53 789.661 1643.01 792.203 1644.03 795.207C1645.05 798.211 1647.04 801.491 1650.01 805.047L1657.49 797.103C1658.8 795.654 1659.52 794.38 1659.68 793.282C1659.83 792.184 1659.08 790.824 1657.44 789.204Z" fill-rule="evenodd"/>
<path clip-path="url(#TextBounds)" d="M1717.8 720.95C1720 723.132 1721.18 725.57 1721.32 728.265C1721.46 730.96 1720.5 733.349 1718.45 735.43C1717.14 736.754 1715.76 737.577 1714.32 737.899C1712.88 738.221 1711.6 738.385 1710.47 738.392C1709.28 738.336 1708.07 738.359 1706.85 738.46C1705.63 738.561 1704.61 739.021 1703.8 739.841C1702.49 741.165 1701.86 742.627 1701.9 744.225C1701.94 745.824 1702.31 747.844 1703.02 750.285L1719.66 766.74C1722.63 769.67 1725.13 771.144 1727.17 771.164C1729.2 771.183 1731.75 769.961 1734.81 767.498C1735 767.309 1735.42 767.385 1736.08 767.726C1736.74 768.067 1737.26 768.424 1737.64 768.798C1737.95 769.11 1738.3 769.61 1738.68 770.297C1739.06 770.985 1739.16 771.423 1738.97 771.612C1737.04 773.567 1734.5 775.949 1731.35 778.757C1728.2 781.565 1725.53 784.073 1723.35 786.28C1721.23 788.424 1718.9 790.977 1716.34 793.939C1713.79 796.901 1711.58 799.327 1709.71 801.219C1709.52 801.408 1709.08 801.317 1708.39 800.945C1707.7 800.573 1707.19 800.231 1706.88 799.919C1706.5 799.545 1706.14 799.03 1705.79 798.374C1705.44 797.717 1705.36 797.295 1705.55 797.105C1707.91 793.957 1708.99 791.537 1708.79 789.845C1708.6 788.153 1706.95 785.78 1703.86 782.726L1689.01 768.047C1686.49 765.554 1684.54 764.218 1683.16 764.037C1681.78 763.857 1679.81 764.809 1677.25 766.893C1677.06 767.083 1676.65 767.022 1676.03 766.712C1675.4 766.403 1674.92 766.092 1674.61 765.78C1674.29 765.468 1673.96 764.985 1673.61 764.328C1673.26 763.672 1673.18 763.249 1673.37 763.06C1674.92 760.48 1676.81 756.676 1679.04 751.647C1681.27 746.618 1682.91 742.628 1683.96 739.675C1684.02 739.361 1684.17 738.89 1684.42 738.261C1684.67 737.633 1684.94 737.161 1685.26 736.846C1686 736.089 1686.68 735.662 1687.27 735.564C1687.87 735.467 1688.32 735.574 1688.64 735.886L1697.25 745.334C1695.97 741.203 1695.63 737.005 1696.24 732.738C1696.84 728.471 1698.2 725.265 1700.32 723.121C1703.37 720.031 1706.47 718.32 1709.6 717.988C1712.73 717.657 1715.46 718.644 1717.8 720.95Z" fill-rule="evenodd"/>
<path clip-path="url(#TextBounds)" d="M1782.67 685.775C1788.66 691.696 1791.78 698.982 1792.02 707.633C1792.26 716.284 1788.32 724.708 1780.22 732.906C1772.18 741.041 1763.82 745.087 1755.13 745.044C1746.45 745 1739.08 741.987 1733.03 736.003C1727.04 730.082 1723.84 722.686 1723.45 713.817C1723.05 704.947 1726.9 696.414 1735.01 688.216C1742.92 680.207 1751.32 676.286 1760.19 676.454C1769.06 676.622 1776.56 679.729 1782.67 685.775ZM1765.56 702.897C1759.51 696.913 1754.45 692.914 1750.4 690.9C1746.34 688.886 1742.72 689.487 1739.55 692.703C1736.37 695.92 1735.82 699.591 1737.92 703.716C1740.01 707.842 1744.02 712.835 1749.95 718.694C1756.07 724.74 1761.09 728.676 1765.02 730.503C1768.95 732.329 1772.5 731.635 1775.68 728.419C1778.8 725.266 1779.4 721.72 1777.5 717.781C1775.6 713.842 1771.62 708.881 1765.56 702.897Z" fill-rule="evenodd"/>
</g>
</g>
</svg>
